<?xml version="1.0" standalone="no"?><!DOCTYPE svg PUBLIC "-//W3C//DTD SVG 1.1//EN" "http://www.w3.org/Graphics/SVG/1.1/DTD/svg11.dtd"><svg xmlns="http://www.w3.org/2000/svg" version="1.1" width="107px" height="17.7px" viewBox="0 -1 107 17.7" style="top:-1px">  <desc>info@dswlearning.co.uk</desc>  <defs/>  <g id="Polygon814724">    <path d="M 1.7 10.5 L 0.8 10.5 L 0.8 5.2 L 1.7 5.2 L 1.7 10.5 Z M 0.7 3.8 C 0.7 3.6 0.7 3.5 0.8 3.4 C 0.9 3.3 1 3.3 1.2 3.3 C 1.4 3.3 1.5 3.3 1.6 3.4 C 1.7 3.5 1.8 3.6 1.8 3.8 C 1.8 3.9 1.7 4.1 1.6 4.2 C 1.5 4.3 1.4 4.3 1.2 4.3 C 1 4.3 0.9 4.3 0.8 4.2 C 0.7 4.1 0.7 3.9 0.7 3.8 Z M 4 5.2 C 4 5.2 3.99 5.86 4 5.9 C 4.4 5.4 4.9 5.1 5.6 5.1 C 6.7 5.1 7.3 5.7 7.3 7 C 7.27 6.99 7.3 10.5 7.3 10.5 L 6.4 10.5 C 6.4 10.5 6.36 6.98 6.4 7 C 6.4 6.6 6.3 6.3 6.1 6.1 C 5.9 6 5.7 5.9 5.3 5.9 C 5 5.9 4.8 5.9 4.5 6.1 C 4.3 6.3 4.1 6.5 4 6.7 C 4.01 6.71 4 10.5 4 10.5 L 3.1 10.5 L 3.1 5.2 L 4 5.2 Z M 9.1 10.5 L 9.1 5.9 L 8.2 5.9 L 8.2 5.2 L 9.1 5.2 C 9.1 5.2 9.07 4.65 9.1 4.7 C 9.1 4.1 9.2 3.6 9.5 3.3 C 9.8 3 10.3 2.9 10.8 2.9 C 11 2.9 11.2 2.9 11.4 3 C 11.4 3 11.4 3.7 11.4 3.7 C 11.2 3.7 11.1 3.6 10.9 3.6 C 10.6 3.6 10.4 3.7 10.2 3.9 C 10.1 4.1 10 4.3 10 4.6 C 9.98 4.64 10 5.2 10 5.2 L 11.1 5.2 L 11.1 5.9 L 10 5.9 L 10 10.5 L 9.1 10.5 Z M 11.9 7.8 C 11.9 7.3 12 6.8 12.2 6.4 C 12.4 6 12.7 5.7 13 5.4 C 13.4 5.2 13.8 5.1 14.3 5.1 C 15 5.1 15.6 5.3 16 5.8 C 16.4 6.3 16.7 7 16.7 7.8 C 16.7 7.8 16.7 7.9 16.7 7.9 C 16.7 8.4 16.6 8.9 16.4 9.3 C 16.2 9.7 15.9 10 15.5 10.2 C 15.2 10.5 14.7 10.6 14.3 10.6 C 13.6 10.6 13 10.3 12.5 9.8 C 12.1 9.3 11.9 8.7 11.9 7.9 C 11.9 7.9 11.9 7.8 11.9 7.8 Z M 12.8 7.9 C 12.8 8.5 12.9 9 13.2 9.3 C 13.4 9.7 13.8 9.8 14.3 9.8 C 14.7 9.8 15.1 9.7 15.4 9.3 C 15.6 8.9 15.8 8.4 15.8 7.8 C 15.8 7.2 15.6 6.7 15.4 6.4 C 15.1 6 14.7 5.8 14.3 5.8 C 13.8 5.8 13.5 6 13.2 6.4 C 12.9 6.7 12.8 7.2 12.8 7.9 Z M 25.6 8 C 25.6 8.8 25.4 9.4 25 9.9 C 24.7 10.3 24.2 10.6 23.6 10.6 C 23 10.6 22.6 10.3 22.4 9.8 C 22.3 10 22.1 10.2 21.8 10.4 C 21.6 10.5 21.4 10.6 21.1 10.6 C 20.7 10.6 20.3 10.4 20.1 10 C 19.8 9.6 19.8 9.1 19.8 8.4 C 19.9 7.9 20 7.4 20.2 7 C 20.4 6.6 20.6 6.3 20.9 6 C 21.3 5.8 21.6 5.6 21.9 5.6 C 22.2 5.6 22.4 5.7 22.6 5.8 C 22.8 5.8 23.1 6 23.3 6.2 C 23.3 6.2 23.1 8.9 23.1 8.9 C 23 9.6 23.2 10 23.7 10 C 24.1 10 24.4 9.8 24.6 9.5 C 24.8 9.1 25 8.6 25 8 C 25 6.8 24.8 5.8 24.3 5.1 C 23.7 4.5 22.9 4.1 21.8 4.1 C 21.2 4.1 20.6 4.3 20.1 4.6 C 19.6 4.9 19.2 5.4 18.9 6 C 18.6 6.6 18.4 7.3 18.4 8.1 C 18.4 9 18.5 9.7 18.7 10.2 C 18.9 10.8 19.3 11.3 19.8 11.6 C 20.2 11.9 20.8 12.1 21.5 12.1 C 21.8 12.1 22.1 12 22.4 12 C 22.7 11.9 22.9 11.8 23.1 11.7 C 23.1 11.7 23.3 12.3 23.3 12.3 C 23.1 12.4 22.8 12.5 22.5 12.6 C 22.2 12.6 21.8 12.7 21.5 12.7 C 20.7 12.7 20 12.5 19.4 12.1 C 18.8 11.8 18.4 11.2 18.1 10.6 C 17.8 9.9 17.7 9.1 17.7 8.1 C 17.7 7.2 17.9 6.4 18.3 5.7 C 18.7 5 19.1 4.5 19.8 4.1 C 20.4 3.7 21.1 3.5 21.9 3.5 C 22.7 3.5 23.4 3.7 23.9 4 C 24.5 4.4 25 4.9 25.2 5.6 C 25.5 6.3 25.6 7.1 25.6 8 Z M 20.6 8.4 C 20.6 8.9 20.6 9.3 20.7 9.5 C 20.9 9.8 21.1 9.9 21.4 9.9 C 21.5 9.9 21.7 9.8 21.9 9.6 C 22.1 9.5 22.2 9.2 22.4 8.9 C 22.36 8.92 22.4 8.9 22.4 8.9 C 22.4 8.9 22.59 6.42 22.6 6.4 C 22.4 6.3 22.2 6.3 22 6.3 C 21.6 6.3 21.3 6.5 21.1 6.9 C 20.8 7.2 20.7 7.8 20.6 8.4 Z M 26.6 7.8 C 26.6 7 26.8 6.3 27.1 5.8 C 27.5 5.3 28 5.1 28.6 5.1 C 29.3 5.1 29.8 5.3 30.1 5.7 C 30.12 5.73 30.1 3 30.1 3 L 31 3 L 31 10.5 L 30.2 10.5 C 30.2 10.5 30.15 9.91 30.1 9.9 C 29.8 10.4 29.3 10.6 28.6 10.6 C 28 10.6 27.5 10.3 27.1 9.8 C 26.8 9.3 26.6 8.7 26.6 7.9 C 26.6 7.9 26.6 7.8 26.6 7.8 Z M 27.5 7.9 C 27.5 8.5 27.6 9 27.8 9.3 C 28.1 9.6 28.4 9.8 28.9 9.8 C 29.4 9.8 29.9 9.6 30.1 9 C 30.1 9 30.1 6.6 30.1 6.6 C 29.8 6.1 29.4 5.9 28.9 5.9 C 28.4 5.9 28.1 6 27.8 6.4 C 27.6 6.7 27.5 7.2 27.5 7.9 Z M 35.5 9.1 C 35.5 8.8 35.4 8.6 35.2 8.5 C 35 8.4 34.7 8.3 34.3 8.2 C 33.8 8.1 33.4 7.9 33.2 7.8 C 32.9 7.7 32.7 7.5 32.6 7.3 C 32.4 7.1 32.4 6.9 32.4 6.6 C 32.4 6.2 32.6 5.8 32.9 5.5 C 33.3 5.2 33.8 5.1 34.3 5.1 C 34.9 5.1 35.4 5.3 35.8 5.6 C 36.2 5.9 36.4 6.3 36.4 6.7 C 36.4 6.7 35.4 6.7 35.4 6.7 C 35.4 6.5 35.3 6.3 35.1 6.1 C 34.9 5.9 34.7 5.8 34.3 5.8 C 34 5.8 33.8 5.9 33.6 6.1 C 33.4 6.2 33.3 6.4 33.3 6.6 C 33.3 6.8 33.4 7 33.5 7.1 C 33.7 7.2 34 7.3 34.5 7.4 C 34.9 7.5 35.3 7.6 35.6 7.8 C 35.9 7.9 36.1 8.1 36.2 8.3 C 36.3 8.5 36.4 8.7 36.4 9 C 36.4 9.5 36.2 9.9 35.8 10.1 C 35.5 10.4 35 10.6 34.4 10.6 C 33.9 10.6 33.6 10.5 33.2 10.4 C 32.9 10.2 32.7 10 32.5 9.7 C 32.3 9.5 32.2 9.2 32.2 8.9 C 32.2 8.9 33.1 8.9 33.1 8.9 C 33.1 9.2 33.2 9.4 33.5 9.6 C 33.7 9.8 34 9.8 34.4 9.8 C 34.7 9.8 35 9.8 35.2 9.6 C 35.4 9.5 35.5 9.3 35.5 9.1 Z M 42.3 9.2 L 43.3 5.2 L 44.2 5.2 L 42.6 10.5 L 41.9 10.5 L 40.6 6.5 L 39.4 10.5 L 38.6 10.5 L 37.1 5.2 L 38 5.2 L 39 9.2 L 40.3 5.2 L 41 5.2 L 42.3 9.2 Z M 46.1 10.5 L 45.2 10.5 L 45.2 3 L 46.1 3 L 46.1 10.5 Z M 51.7 9.6 C 51.3 10.2 50.6 10.6 49.7 10.6 C 49 10.6 48.4 10.3 48 9.9 C 47.5 9.4 47.3 8.8 47.3 8 C 47.3 8 47.3 7.8 47.3 7.8 C 47.3 7.3 47.4 6.8 47.6 6.4 C 47.8 6 48.1 5.7 48.4 5.4 C 48.8 5.2 49.2 5.1 49.6 5.1 C 50.3 5.1 50.8 5.3 51.2 5.8 C 51.6 6.2 51.8 6.9 51.8 7.7 C 51.77 7.72 51.8 8.1 51.8 8.1 C 51.8 8.1 48.19 8.1 48.2 8.1 C 48.2 8.6 48.4 9 48.6 9.4 C 48.9 9.7 49.3 9.8 49.8 9.8 C 50.1 9.8 50.3 9.8 50.6 9.6 C 50.8 9.5 51 9.3 51.2 9.1 C 51.15 9.13 51.7 9.6 51.7 9.6 C 51.7 9.6 51.7 9.56 51.7 9.6 Z M 49.6 5.8 C 49.2 5.8 48.9 6 48.7 6.2 C 48.4 6.5 48.3 6.9 48.2 7.4 C 48.22 7.35 50.9 7.4 50.9 7.4 C 50.9 7.4 50.87 7.29 50.9 7.3 C 50.8 6.8 50.7 6.5 50.5 6.2 C 50.3 6 50 5.8 49.6 5.8 Z M 56.1 10.5 C 56 10.4 56 10.2 56 9.9 C 55.5 10.4 55 10.6 54.4 10.6 C 53.9 10.6 53.5 10.4 53.2 10.1 C 52.8 9.8 52.7 9.5 52.7 9 C 52.7 8.5 52.9 8 53.3 7.7 C 53.7 7.4 54.3 7.3 55.1 7.3 C 55.06 7.28 55.9 7.3 55.9 7.3 C 55.9 7.3 55.94 6.86 55.9 6.9 C 55.9 6.5 55.8 6.3 55.7 6.1 C 55.5 5.9 55.2 5.8 54.8 5.8 C 54.5 5.8 54.2 5.9 54 6.1 C 53.8 6.2 53.7 6.4 53.7 6.7 C 53.7 6.7 52.8 6.7 52.8 6.7 C 52.8 6.4 52.9 6.1 53.1 5.9 C 53.2 5.7 53.5 5.5 53.8 5.3 C 54.1 5.2 54.5 5.1 54.9 5.1 C 55.5 5.1 56 5.2 56.3 5.6 C 56.6 5.9 56.8 6.3 56.8 6.8 C 56.8 6.8 56.8 9.2 56.8 9.2 C 56.8 9.7 56.9 10.1 57 10.4 C 57.03 10.4 57 10.5 57 10.5 C 57 10.5 56.08 10.48 56.1 10.5 Z M 54.6 9.8 C 54.9 9.8 55.1 9.7 55.4 9.6 C 55.6 9.4 55.8 9.2 55.9 9 C 55.94 9 55.9 7.9 55.9 7.9 C 55.9 7.9 55.23 7.92 55.2 7.9 C 54.1 7.9 53.6 8.2 53.6 8.9 C 53.6 9.2 53.7 9.4 53.9 9.6 C 54 9.7 54.3 9.8 54.6 9.8 Z M 60.8 6 C 60.7 6 60.5 6 60.4 6 C 59.8 6 59.4 6.2 59.2 6.7 C 59.16 6.73 59.2 10.5 59.2 10.5 L 58.3 10.5 L 58.3 5.2 L 59.1 5.2 C 59.1 5.2 59.15 5.81 59.2 5.8 C 59.4 5.3 59.9 5.1 60.4 5.1 C 60.6 5.1 60.7 5.1 60.8 5.2 C 60.8 5.2 60.8 6 60.8 6 Z M 62.5 5.2 C 62.5 5.2 62.52 5.86 62.5 5.9 C 62.9 5.4 63.5 5.1 64.1 5.1 C 65.2 5.1 65.8 5.7 65.8 7 C 65.8 6.99 65.8 10.5 65.8 10.5 L 64.9 10.5 C 64.9 10.5 64.89 6.98 64.9 7 C 64.9 6.6 64.8 6.3 64.6 6.1 C 64.5 6 64.2 5.9 63.8 5.9 C 63.5 5.9 63.3 5.9 63.1 6.1 C 62.8 6.3 62.7 6.5 62.5 6.7 C 62.54 6.71 62.5 10.5 62.5 10.5 L 61.6 10.5 L 61.6 5.2 L 62.5 5.2 Z M 68.1 10.5 L 67.2 10.5 L 67.2 5.2 L 68.1 5.2 L 68.1 10.5 Z M 67.2 3.8 C 67.2 3.6 67.2 3.5 67.3 3.4 C 67.4 3.3 67.5 3.3 67.7 3.3 C 67.9 3.3 68 3.3 68.1 3.4 C 68.2 3.5 68.2 3.6 68.2 3.8 C 68.2 3.9 68.2 4.1 68.1 4.2 C 68 4.3 67.9 4.3 67.7 4.3 C 67.5 4.3 67.4 4.3 67.3 4.2 C 67.2 4.1 67.2 3.9 67.2 3.8 Z M 70.4 5.2 C 70.4 5.2 70.47 5.86 70.5 5.9 C 70.9 5.4 71.4 5.1 72.1 5.1 C 73.2 5.1 73.7 5.7 73.7 7 C 73.74 6.99 73.7 10.5 73.7 10.5 L 72.8 10.5 C 72.8 10.5 72.84 6.98 72.8 7 C 72.8 6.6 72.7 6.3 72.6 6.1 C 72.4 6 72.1 5.9 71.8 5.9 C 71.5 5.9 71.2 5.9 71 6.1 C 70.8 6.3 70.6 6.5 70.5 6.7 C 70.49 6.71 70.5 10.5 70.5 10.5 L 69.6 10.5 L 69.6 5.2 L 70.4 5.2 Z M 74.9 7.8 C 74.9 7 75.1 6.3 75.5 5.8 C 75.8 5.3 76.3 5.1 77 5.1 C 77.6 5.1 78.1 5.3 78.5 5.8 C 78.48 5.78 78.5 5.2 78.5 5.2 L 79.4 5.2 C 79.4 5.2 79.35 10.35 79.4 10.4 C 79.4 11 79.1 11.6 78.7 12 C 78.3 12.4 77.8 12.6 77.1 12.6 C 76.7 12.6 76.4 12.5 76 12.3 C 75.6 12.2 75.3 11.9 75.2 11.6 C 75.2 11.6 75.6 11.1 75.6 11.1 C 76 11.6 76.5 11.8 77 11.8 C 77.5 11.8 77.8 11.7 78.1 11.5 C 78.3 11.2 78.4 10.9 78.4 10.4 C 78.4 10.4 78.4 10 78.4 10 C 78.1 10.4 77.6 10.6 77 10.6 C 76.3 10.6 75.8 10.3 75.5 9.8 C 75.1 9.3 74.9 8.7 74.9 7.8 Z M 75.8 7.9 C 75.8 8.5 75.9 9 76.2 9.3 C 76.4 9.6 76.7 9.8 77.2 9.8 C 77.8 9.8 78.2 9.6 78.4 9 C 78.4 9 78.4 6.6 78.4 6.6 C 78.2 6.1 77.8 5.9 77.2 5.9 C 76.8 5.9 76.4 6 76.2 6.4 C 75.9 6.7 75.8 7.2 75.8 7.9 Z M 80.7 10 C 80.7 9.8 80.8 9.7 80.9 9.6 C 81 9.5 81.1 9.5 81.3 9.5 C 81.5 9.5 81.6 9.5 81.7 9.6 C 81.8 9.7 81.9 9.8 81.9 10 C 81.9 10.2 81.8 10.3 81.7 10.4 C 81.6 10.5 81.5 10.5 81.3 10.5 C 81.1 10.5 81 10.5 80.9 10.4 C 80.8 10.3 80.7 10.2 80.7 10 Z M 85.5 9.8 C 85.8 9.8 86.1 9.7 86.3 9.5 C 86.5 9.4 86.7 9.1 86.7 8.8 C 86.7 8.8 87.6 8.8 87.6 8.8 C 87.5 9.1 87.4 9.4 87.3 9.7 C 87.1 10 86.8 10.2 86.5 10.3 C 86.2 10.5 85.8 10.6 85.5 10.6 C 84.7 10.6 84.2 10.3 83.7 9.9 C 83.3 9.4 83.1 8.7 83.1 7.9 C 83.1 7.9 83.1 7.7 83.1 7.7 C 83.1 7.2 83.2 6.8 83.4 6.4 C 83.6 6 83.9 5.7 84.2 5.4 C 84.6 5.2 85 5.1 85.5 5.1 C 86.1 5.1 86.5 5.3 86.9 5.6 C 87.3 6 87.5 6.4 87.6 7 C 87.6 7 86.7 7 86.7 7 C 86.7 6.7 86.6 6.4 86.3 6.2 C 86.1 5.9 85.8 5.8 85.5 5.8 C 85 5.8 84.6 6 84.4 6.3 C 84.1 6.7 84 7.1 84 7.8 C 84 7.8 84 7.9 84 7.9 C 84 8.5 84.1 9 84.4 9.3 C 84.6 9.7 85 9.8 85.5 9.8 Z M 88.3 7.8 C 88.3 7.3 88.4 6.8 88.6 6.4 C 88.8 6 89.1 5.7 89.5 5.4 C 89.9 5.2 90.3 5.1 90.7 5.1 C 91.5 5.1 92 5.3 92.5 5.8 C 92.9 6.3 93.1 7 93.1 7.8 C 93.1 7.8 93.1 7.9 93.1 7.9 C 93.1 8.4 93.1 8.9 92.9 9.3 C 92.7 9.7 92.4 10 92 10.2 C 91.6 10.5 91.2 10.6 90.7 10.6 C 90 10.6 89.5 10.3 89 9.8 C 88.6 9.3 88.3 8.7 88.3 7.9 C 88.3 7.9 88.3 7.8 88.3 7.8 Z M 89.2 7.9 C 89.2 8.5 89.4 9 89.7 9.3 C 89.9 9.7 90.3 9.8 90.7 9.8 C 91.2 9.8 91.6 9.7 91.8 9.3 C 92.1 8.9 92.2 8.4 92.2 7.8 C 92.2 7.2 92.1 6.7 91.8 6.4 C 91.6 6 91.2 5.8 90.7 5.8 C 90.3 5.8 89.9 6 89.7 6.4 C 89.4 6.7 89.2 7.2 89.2 7.9 Z M 94.3 10 C 94.3 9.8 94.3 9.7 94.4 9.6 C 94.5 9.5 94.7 9.5 94.9 9.5 C 95 9.5 95.2 9.5 95.3 9.6 C 95.4 9.7 95.4 9.8 95.4 10 C 95.4 10.2 95.4 10.3 95.3 10.4 C 95.2 10.5 95 10.5 94.9 10.5 C 94.7 10.5 94.5 10.5 94.4 10.4 C 94.3 10.3 94.3 10.2 94.3 10 Z M 100.2 10 C 99.8 10.4 99.3 10.6 98.6 10.6 C 98.1 10.6 97.6 10.4 97.3 10.1 C 97 9.8 96.9 9.3 96.9 8.6 C 96.89 8.63 96.9 5.2 96.9 5.2 L 97.8 5.2 C 97.8 5.2 97.8 8.61 97.8 8.6 C 97.8 9.4 98.1 9.8 98.8 9.8 C 99.5 9.8 99.9 9.6 100.2 9 C 100.15 9.04 100.2 5.2 100.2 5.2 L 101.1 5.2 L 101.1 10.5 L 100.2 10.5 C 100.2 10.5 100.18 9.96 100.2 10 Z M 103.9 8 L 103.3 8.6 L 103.3 10.5 L 102.4 10.5 L 102.4 3 L 103.3 3 L 103.3 7.5 L 103.8 6.9 L 105.5 5.2 L 106.6 5.2 L 104.5 7.4 L 106.8 10.5 L 105.7 10.5 L 103.9 8 Z " stroke="none" fill="#f28620"/>  </g></svg>