<?xml version="1.0" standalone="no"?><!DOCTYPE svg PUBLIC "-//W3C//DTD SVG 1.1//EN" "http://www.w3.org/Graphics/SVG/1.1/DTD/svg11.dtd"><svg xmlns="http://www.w3.org/2000/svg" version="1.1" width="103.4px" height="17.7px" viewBox="0 -1 103.4 17.7" style="top:-1px">  <desc>www.dswlearning.co.uk</desc>  <defs/>  <g id="Polygon808851">    <path d="M 2 9.3 L 2.1 9.7 L 2.2 9.2 L 3.5 5.2 L 4 5.2 L 5.3 9.2 L 5.4 9.8 L 5.5 9.2 L 6.6 5.2 L 7.2 5.2 L 5.7 10.5 L 5.2 10.5 L 3.8 6.3 L 3.7 6 L 3.7 6.3 L 2.3 10.5 L 1.8 10.5 L 0.3 5.2 L 0.9 5.2 L 2 9.3 Z M 9.6 9.3 L 9.7 9.7 L 9.8 9.2 L 11 5.2 L 11.5 5.2 L 12.8 9.2 L 12.9 9.8 L 13 9.2 L 14.1 5.2 L 14.7 5.2 L 13.2 10.5 L 12.7 10.5 L 11.3 6.3 L 11.3 6 L 11.2 6.3 L 9.9 10.5 L 9.4 10.5 L 7.8 5.2 L 8.4 5.2 L 9.6 9.3 Z M 17.1 9.3 L 17.2 9.7 L 17.3 9.2 L 18.6 5.2 L 19.1 5.2 L 20.3 9.2 L 20.5 9.8 L 20.6 9.2 L 21.7 5.2 L 22.3 5.2 L 20.7 10.5 L 20.2 10.5 L 18.9 6.3 L 18.8 6 L 18.7 6.3 L 17.4 10.5 L 16.9 10.5 L 15.4 5.2 L 16 5.2 L 17.1 9.3 Z M 22.7 10.1 C 22.7 10 22.8 9.9 22.8 9.8 C 22.9 9.8 23 9.7 23.1 9.7 C 23.3 9.7 23.4 9.8 23.4 9.8 C 23.5 9.9 23.6 10 23.6 10.1 C 23.6 10.2 23.5 10.3 23.4 10.4 C 23.4 10.5 23.3 10.5 23.1 10.5 C 23 10.5 22.9 10.5 22.8 10.4 C 22.8 10.3 22.7 10.2 22.7 10.1 Z M 24.9 7.8 C 24.9 7 25.1 6.3 25.5 5.8 C 25.8 5.3 26.3 5.1 27 5.1 C 27.7 5.1 28.2 5.4 28.6 5.9 C 28.6 5.94 28.6 3 28.6 3 L 29.2 3 L 29.2 10.5 L 28.6 10.5 C 28.6 10.5 28.61 9.78 28.6 9.8 C 28.2 10.3 27.7 10.6 27 10.6 C 26.3 10.6 25.9 10.3 25.5 9.8 C 25.1 9.4 24.9 8.7 24.9 7.9 C 24.9 7.9 24.9 7.8 24.9 7.8 Z M 25.5 7.9 C 25.5 8.6 25.7 9.1 25.9 9.5 C 26.2 9.9 26.6 10.1 27.1 10.1 C 27.8 10.1 28.3 9.8 28.6 9.1 C 28.6 9.1 28.6 6.6 28.6 6.6 C 28.3 5.9 27.8 5.6 27.1 5.6 C 26.6 5.6 26.2 5.8 25.9 6.2 C 25.7 6.6 25.5 7.1 25.5 7.9 Z M 33.9 9.1 C 33.9 8.8 33.8 8.6 33.5 8.4 C 33.3 8.3 32.9 8.1 32.5 8 C 32 7.9 31.6 7.8 31.4 7.7 C 31.1 7.6 30.9 7.4 30.8 7.2 C 30.7 7 30.6 6.8 30.6 6.5 C 30.6 6.1 30.8 5.8 31.1 5.5 C 31.5 5.2 31.9 5.1 32.5 5.1 C 33.1 5.1 33.5 5.2 33.9 5.5 C 34.3 5.8 34.4 6.2 34.4 6.7 C 34.4 6.7 33.9 6.7 33.9 6.7 C 33.9 6.4 33.7 6.1 33.5 5.9 C 33.2 5.7 32.9 5.6 32.5 5.6 C 32.1 5.6 31.8 5.7 31.6 5.9 C 31.3 6 31.2 6.2 31.2 6.5 C 31.2 6.8 31.3 7 31.5 7.1 C 31.7 7.3 32 7.4 32.6 7.5 C 33.1 7.6 33.5 7.8 33.7 7.9 C 34 8.1 34.2 8.2 34.3 8.4 C 34.4 8.6 34.5 8.8 34.5 9.1 C 34.5 9.6 34.3 9.9 33.9 10.2 C 33.6 10.4 33.1 10.6 32.5 10.6 C 31.9 10.6 31.4 10.4 31 10.1 C 30.6 9.8 30.4 9.5 30.4 9 C 30.4 9 31 9 31 9 C 31.1 9.3 31.2 9.6 31.5 9.8 C 31.7 10 32.1 10.1 32.5 10.1 C 32.9 10.1 33.3 10 33.5 9.8 C 33.8 9.6 33.9 9.4 33.9 9.1 Z M 37 9.3 L 37.1 9.7 L 37.3 9.2 L 38.5 5.2 L 39 5.2 L 40.3 9.2 L 40.4 9.8 L 40.5 9.2 L 41.6 5.2 L 42.2 5.2 L 40.7 10.5 L 40.2 10.5 L 38.8 6.3 L 38.8 6 L 38.7 6.3 L 37.4 10.5 L 36.9 10.5 L 35.3 5.2 L 35.9 5.2 L 37 9.3 Z M 44 10.5 L 43.4 10.5 L 43.4 3 L 44 3 L 44 10.5 Z M 49.5 9.6 C 49 10.3 48.4 10.6 47.6 10.6 C 47.2 10.6 46.8 10.5 46.4 10.2 C 46 10 45.7 9.7 45.5 9.3 C 45.3 8.9 45.2 8.5 45.2 8 C 45.2 8 45.2 7.8 45.2 7.8 C 45.2 7.3 45.3 6.8 45.5 6.4 C 45.7 6 46 5.7 46.4 5.4 C 46.7 5.2 47.1 5.1 47.5 5.1 C 48.1 5.1 48.6 5.3 49 5.8 C 49.4 6.2 49.6 6.8 49.6 7.5 C 49.59 7.55 49.6 7.9 49.6 7.9 L 45.8 7.9 C 45.8 7.9 45.82 7.99 45.8 8 C 45.8 8.6 46 9.1 46.3 9.5 C 46.7 9.9 47.1 10.1 47.6 10.1 C 47.9 10.1 48.2 10 48.5 9.9 C 48.7 9.8 48.9 9.6 49.1 9.4 C 49.11 9.37 49.5 9.6 49.5 9.6 C 49.5 9.6 49.48 9.64 49.5 9.6 Z M 47.5 5.6 C 47.1 5.6 46.7 5.8 46.4 6.1 C 46.1 6.4 45.9 6.8 45.8 7.4 C 45.84 7.38 49 7.4 49 7.4 C 49 7.4 49.01 7.31 49 7.3 C 49 6.8 48.8 6.4 48.6 6.1 C 48.3 5.8 47.9 5.6 47.5 5.6 Z M 54.1 10.5 C 54 10.3 54 10.1 54 9.7 C 53.7 10 53.5 10.2 53.2 10.4 C 52.8 10.5 52.5 10.6 52.2 10.6 C 51.7 10.6 51.2 10.4 50.9 10.2 C 50.6 9.9 50.5 9.5 50.5 9.1 C 50.5 8.6 50.7 8.2 51.1 7.9 C 51.5 7.6 52.1 7.4 52.9 7.4 C 52.89 7.41 53.9 7.4 53.9 7.4 C 53.9 7.4 53.95 6.81 53.9 6.8 C 53.9 6.4 53.8 6.1 53.6 5.9 C 53.4 5.7 53 5.6 52.6 5.6 C 52.2 5.6 51.8 5.7 51.6 5.9 C 51.3 6.1 51.2 6.4 51.2 6.7 C 51.2 6.7 50.6 6.7 50.6 6.7 C 50.6 6.2 50.8 5.9 51.2 5.6 C 51.6 5.3 52 5.1 52.6 5.1 C 53.2 5.1 53.7 5.2 54 5.5 C 54.3 5.8 54.5 6.2 54.5 6.8 C 54.5 6.8 54.5 9.3 54.5 9.3 C 54.5 9.8 54.6 10.2 54.7 10.4 C 54.69 10.42 54.7 10.5 54.7 10.5 C 54.7 10.5 54.06 10.48 54.1 10.5 Z M 52.2 10.1 C 52.6 10.1 53 10 53.3 9.8 C 53.6 9.6 53.8 9.3 53.9 9 C 53.95 9.02 53.9 7.9 53.9 7.9 C 53.9 7.9 52.9 7.86 52.9 7.9 C 52.3 7.9 51.9 8 51.5 8.2 C 51.2 8.4 51 8.7 51 9 C 51 9.3 51.1 9.6 51.4 9.8 C 51.6 10 51.9 10.1 52.2 10.1 Z M 58.5 5.7 C 58.4 5.7 58.3 5.7 58.1 5.7 C 57.8 5.7 57.5 5.8 57.2 6 C 57 6.2 56.8 6.5 56.7 6.9 C 56.67 6.85 56.7 10.5 56.7 10.5 L 56.1 10.5 L 56.1 5.2 L 56.7 5.2 C 56.7 5.2 56.67 6.04 56.7 6 C 57 5.4 57.5 5.1 58.2 5.1 C 58.3 5.1 58.4 5.1 58.5 5.2 C 58.5 5.2 58.5 5.7 58.5 5.7 Z M 60 5.2 C 60 5.2 60.02 6.1 60 6.1 C 60.2 5.8 60.5 5.5 60.8 5.4 C 61.1 5.2 61.4 5.1 61.7 5.1 C 62.3 5.1 62.7 5.3 63 5.6 C 63.3 5.9 63.4 6.4 63.4 7 C 63.43 7.01 63.4 10.5 63.4 10.5 L 62.9 10.5 C 62.9 10.5 62.85 7.01 62.9 7 C 62.8 6.5 62.7 6.2 62.6 6 C 62.4 5.7 62 5.6 61.6 5.6 C 61.2 5.6 60.9 5.7 60.6 5.9 C 60.4 6.2 60.2 6.5 60 6.9 C 60.03 6.86 60 10.5 60 10.5 L 59.4 10.5 L 59.4 5.2 L 60 5.2 Z M 65.6 10.5 L 65 10.5 L 65 5.2 L 65.6 5.2 L 65.6 10.5 Z M 64.9 3.7 C 64.9 3.6 64.9 3.5 65 3.4 C 65.1 3.3 65.2 3.3 65.3 3.3 C 65.4 3.3 65.5 3.3 65.6 3.4 C 65.7 3.5 65.7 3.6 65.7 3.7 C 65.7 3.8 65.7 3.9 65.6 3.9 C 65.5 4 65.4 4.1 65.3 4.1 C 65.2 4.1 65.1 4 65 3.9 C 64.9 3.9 64.9 3.8 64.9 3.7 Z M 67.7 5.2 C 67.7 5.2 67.76 6.1 67.8 6.1 C 68 5.8 68.2 5.5 68.5 5.4 C 68.8 5.2 69.1 5.1 69.5 5.1 C 70 5.1 70.5 5.3 70.7 5.6 C 71 5.9 71.2 6.4 71.2 7 C 71.17 7.01 71.2 10.5 71.2 10.5 L 70.6 10.5 C 70.6 10.5 70.59 7.01 70.6 7 C 70.6 6.5 70.5 6.2 70.3 6 C 70.1 5.7 69.8 5.6 69.3 5.6 C 69 5.6 68.7 5.7 68.4 5.9 C 68.1 6.2 67.9 6.5 67.8 6.9 C 67.76 6.86 67.8 10.5 67.8 10.5 L 67.2 10.5 L 67.2 5.2 L 67.7 5.2 Z M 72.4 7.8 C 72.4 7 72.6 6.3 73 5.8 C 73.4 5.3 73.9 5.1 74.5 5.1 C 75.2 5.1 75.7 5.4 76.1 6 C 76.12 5.96 76.2 5.2 76.2 5.2 L 76.7 5.2 C 76.7 5.2 76.7 10.37 76.7 10.4 C 76.7 11.1 76.5 11.6 76.1 12 C 75.7 12.4 75.2 12.6 74.6 12.6 C 74.2 12.6 73.9 12.5 73.5 12.3 C 73.2 12.2 72.9 12 72.7 11.7 C 72.7 11.7 73.1 11.3 73.1 11.3 C 73.5 11.8 74 12.1 74.5 12.1 C 75 12.1 75.4 11.9 75.7 11.7 C 76 11.4 76.1 11 76.1 10.5 C 76.1 10.5 76.1 9.8 76.1 9.8 C 75.7 10.3 75.2 10.6 74.5 10.6 C 73.9 10.6 73.4 10.3 73 9.8 C 72.6 9.4 72.4 8.7 72.4 7.9 C 72.4 7.9 72.4 7.8 72.4 7.8 Z M 73 7.9 C 73 8.6 73.2 9.1 73.4 9.5 C 73.7 9.9 74.1 10.1 74.6 10.1 C 75.3 10.1 75.8 9.7 76.1 9.1 C 76.1 9.1 76.1 6.6 76.1 6.6 C 76 6.3 75.8 6 75.5 5.9 C 75.3 5.7 75 5.6 74.6 5.6 C 74.1 5.6 73.7 5.8 73.4 6.2 C 73.2 6.6 73 7.1 73 7.9 Z M 78.2 10.1 C 78.2 10 78.2 9.9 78.3 9.8 C 78.4 9.8 78.5 9.7 78.6 9.7 C 78.7 9.7 78.8 9.8 78.9 9.8 C 79 9.9 79 10 79 10.1 C 79 10.2 79 10.3 78.9 10.4 C 78.8 10.5 78.7 10.5 78.6 10.5 C 78.5 10.5 78.4 10.5 78.3 10.4 C 78.2 10.3 78.2 10.2 78.2 10.1 Z M 82.6 10.1 C 83 10.1 83.3 10 83.6 9.7 C 83.9 9.5 84 9.2 84 8.8 C 84 8.8 84.6 8.8 84.6 8.8 C 84.6 9.2 84.5 9.5 84.3 9.7 C 84.1 10 83.9 10.2 83.6 10.4 C 83.2 10.5 82.9 10.6 82.6 10.6 C 81.9 10.6 81.3 10.3 80.9 9.9 C 80.5 9.4 80.3 8.7 80.3 7.9 C 80.3 7.9 80.3 7.7 80.3 7.7 C 80.3 7.2 80.4 6.8 80.6 6.4 C 80.8 6 81 5.6 81.4 5.4 C 81.7 5.2 82.1 5.1 82.6 5.1 C 83.1 5.1 83.6 5.3 84 5.6 C 84.4 6 84.6 6.4 84.6 7 C 84.6 7 84 7 84 7 C 84 6.6 83.9 6.2 83.6 6 C 83.3 5.7 83 5.6 82.6 5.6 C 82 5.6 81.6 5.8 81.3 6.2 C 81 6.5 80.9 7.1 80.9 7.8 C 80.9 7.8 80.9 7.9 80.9 7.9 C 80.9 8.6 81 9.1 81.3 9.5 C 81.6 9.9 82 10.1 82.6 10.1 Z M 85.4 7.8 C 85.4 7.3 85.5 6.8 85.7 6.4 C 85.9 6 86.2 5.7 86.6 5.4 C 86.9 5.2 87.3 5.1 87.8 5.1 C 88.5 5.1 89.1 5.3 89.5 5.8 C 89.9 6.3 90.2 7 90.2 7.8 C 90.2 7.8 90.2 7.9 90.2 7.9 C 90.2 8.4 90.1 8.9 89.9 9.3 C 89.7 9.7 89.4 10 89 10.2 C 88.7 10.5 88.3 10.6 87.8 10.6 C 87.1 10.6 86.5 10.3 86.1 9.8 C 85.7 9.3 85.4 8.7 85.4 7.9 C 85.4 7.9 85.4 7.8 85.4 7.8 Z M 86 7.9 C 86 8.6 86.2 9.1 86.5 9.5 C 86.8 9.9 87.3 10.1 87.8 10.1 C 88.3 10.1 88.8 9.9 89.1 9.5 C 89.4 9.1 89.6 8.5 89.6 7.9 C 89.6 7.9 89.6 7.8 89.6 7.8 C 89.6 7.4 89.5 7 89.4 6.7 C 89.2 6.3 89 6.1 88.7 5.9 C 88.5 5.7 88.1 5.6 87.8 5.6 C 87.3 5.6 86.8 5.8 86.5 6.2 C 86.2 6.6 86 7.2 86 7.8 C 86 7.8 86 7.9 86 7.9 Z M 91.3 10.1 C 91.3 10 91.3 9.9 91.4 9.8 C 91.5 9.8 91.6 9.7 91.7 9.7 C 91.9 9.7 92 9.8 92 9.8 C 92.1 9.9 92.1 10 92.1 10.1 C 92.1 10.2 92.1 10.3 92 10.4 C 92 10.5 91.9 10.5 91.7 10.5 C 91.6 10.5 91.5 10.5 91.4 10.4 C 91.3 10.3 91.3 10.2 91.3 10.1 Z M 97.1 9.8 C 96.8 10.3 96.2 10.6 95.5 10.6 C 94.9 10.6 94.5 10.4 94.2 10.1 C 93.9 9.8 93.7 9.3 93.7 8.6 C 93.73 8.63 93.7 5.2 93.7 5.2 L 94.3 5.2 C 94.3 5.2 94.31 8.56 94.3 8.6 C 94.3 9.6 94.7 10.1 95.5 10.1 C 96.4 10.1 96.9 9.7 97.1 9 C 97.14 9.02 97.1 5.2 97.1 5.2 L 97.7 5.2 L 97.7 10.5 L 97.2 10.5 C 97.2 10.5 97.15 9.81 97.1 9.8 Z M 100.5 7.8 L 99.8 8.5 L 99.8 10.5 L 99.2 10.5 L 99.2 3 L 99.8 3 L 99.8 7.8 L 100.4 7.2 L 102.4 5.2 L 103.1 5.2 L 100.9 7.4 L 103.3 10.5 L 102.6 10.5 L 100.5 7.8 Z " stroke="none" fill="#fff"/>  </g></svg>