<?xml version="1.0" standalone="no"?><!DOCTYPE svg PUBLIC "-//W3C//DTD SVG 1.1//EN" "http://www.w3.org/Graphics/SVG/1.1/DTD/svg11.dtd"><svg xmlns="http://www.w3.org/2000/svg" version="1.1" width="67px" height="17.7px" viewBox="0 -1 67 17.7" style="top:-1px">  <desc>01302 760 008</desc>  <defs/>  <g id="Polygon814646">    <path d="M 5 7.4 C 5 8.5 4.9 9.3 4.5 9.8 C 4.1 10.3 3.6 10.6 2.8 10.6 C 2.1 10.6 1.5 10.3 1.1 9.8 C 0.8 9.3 0.6 8.6 0.6 7.6 C 0.6 7.6 0.6 6.4 0.6 6.4 C 0.6 5.3 0.7 4.5 1.1 4 C 1.5 3.5 2 3.3 2.8 3.3 C 3.6 3.3 4.1 3.5 4.5 4 C 4.9 4.5 5 5.3 5 6.3 C 5 6.3 5 7.4 5 7.4 Z M 4.1 6.2 C 4.1 5.4 4 4.9 3.8 4.5 C 3.6 4.2 3.3 4 2.8 4 C 2.3 4 2 4.2 1.8 4.5 C 1.6 4.9 1.5 5.4 1.5 6.1 C 1.5 6.1 1.5 7.6 1.5 7.6 C 1.5 8.4 1.6 8.9 1.8 9.3 C 2 9.7 2.4 9.8 2.8 9.8 C 3.3 9.8 3.6 9.7 3.8 9.3 C 4 9 4.1 8.4 4.1 7.7 C 4.1 7.7 4.1 6.2 4.1 6.2 Z M 9.2 10.5 L 8.3 10.5 L 8.3 4.5 L 6.4 5.1 L 6.4 4.3 L 9 3.3 L 9.2 3.3 L 9.2 10.5 Z M 13.1 6.5 C 13.1 6.5 13.81 6.48 13.8 6.5 C 14.2 6.5 14.6 6.4 14.8 6.1 C 15.1 5.9 15.2 5.6 15.2 5.3 C 15.2 4.4 14.8 4 13.9 4 C 13.5 4 13.2 4.1 13 4.3 C 12.8 4.6 12.7 4.9 12.7 5.2 C 12.7 5.2 11.8 5.2 11.8 5.2 C 11.8 4.7 12 4.2 12.4 3.8 C 12.8 3.5 13.3 3.3 13.9 3.3 C 14.6 3.3 15.1 3.4 15.5 3.8 C 15.9 4.2 16.1 4.7 16.1 5.3 C 16.1 5.6 16 5.9 15.8 6.2 C 15.6 6.5 15.3 6.7 15 6.8 C 15.4 7 15.7 7.2 15.9 7.4 C 16.1 7.7 16.2 8.1 16.2 8.5 C 16.2 9.1 16 9.6 15.6 10 C 15.2 10.4 14.6 10.6 13.9 10.6 C 13.3 10.6 12.7 10.4 12.3 10 C 11.9 9.7 11.7 9.2 11.7 8.6 C 11.7 8.6 12.6 8.6 12.6 8.6 C 12.6 9 12.7 9.3 13 9.5 C 13.2 9.7 13.5 9.8 13.9 9.8 C 14.4 9.8 14.7 9.7 14.9 9.5 C 15.2 9.3 15.3 8.9 15.3 8.5 C 15.3 8.1 15.2 7.8 14.9 7.6 C 14.7 7.3 14.3 7.2 13.8 7.2 C 13.81 7.22 13.1 7.2 13.1 7.2 L 13.1 6.5 Z M 21.9 7.4 C 21.9 8.5 21.7 9.3 21.4 9.8 C 21 10.3 20.4 10.6 19.7 10.6 C 18.9 10.6 18.3 10.3 18 9.8 C 17.6 9.3 17.4 8.6 17.4 7.6 C 17.4 7.6 17.4 6.4 17.4 6.4 C 17.4 5.3 17.6 4.5 17.9 4 C 18.3 3.5 18.9 3.3 19.6 3.3 C 20.4 3.3 21 3.5 21.3 4 C 21.7 4.5 21.9 5.3 21.9 6.3 C 21.9 6.3 21.9 7.4 21.9 7.4 Z M 21 6.2 C 21 5.4 20.9 4.9 20.7 4.5 C 20.5 4.2 20.1 4 19.6 4 C 19.2 4 18.8 4.2 18.6 4.5 C 18.4 4.9 18.3 5.4 18.3 6.1 C 18.3 6.1 18.3 7.6 18.3 7.6 C 18.3 8.4 18.4 8.9 18.6 9.3 C 18.9 9.7 19.2 9.8 19.7 9.8 C 20.1 9.8 20.4 9.7 20.7 9.3 C 20.9 9 21 8.4 21 7.7 C 21 7.7 21 6.2 21 6.2 Z M 27.7 10.5 L 23.1 10.5 L 23.1 9.8 C 23.1 9.8 25.51 7.09 25.5 7.1 C 25.9 6.7 26.1 6.3 26.3 6.1 C 26.4 5.8 26.5 5.6 26.5 5.3 C 26.5 4.9 26.4 4.6 26.1 4.4 C 25.9 4.1 25.6 4 25.2 4 C 24.8 4 24.4 4.1 24.2 4.4 C 23.9 4.7 23.8 5 23.8 5.5 C 23.8 5.5 22.9 5.5 22.9 5.5 C 22.9 4.8 23.1 4.3 23.5 3.9 C 24 3.5 24.5 3.3 25.2 3.3 C 25.9 3.3 26.4 3.4 26.8 3.8 C 27.2 4.1 27.4 4.6 27.4 5.2 C 27.4 5.9 26.9 6.7 26 7.7 C 26.04 7.68 24.1 9.7 24.1 9.7 L 27.7 9.7 L 27.7 10.5 Z M 35.7 3.9 L 32.8 10.5 L 31.8 10.5 L 34.8 4.1 L 30.9 4.1 L 30.9 3.4 L 35.7 3.4 L 35.7 3.9 Z M 40.3 3.4 L 40.3 4.1 C 40.3 4.1 40.14 4.13 40.1 4.1 C 39.4 4.1 38.9 4.4 38.5 4.8 C 38 5.2 37.8 5.7 37.7 6.5 C 38.1 6 38.6 5.8 39.3 5.8 C 39.9 5.8 40.4 6 40.7 6.5 C 41.1 6.9 41.3 7.5 41.3 8.2 C 41.3 8.9 41.1 9.5 40.7 9.9 C 40.3 10.4 39.8 10.6 39.1 10.6 C 38.4 10.6 37.9 10.3 37.4 9.8 C 37 9.3 36.8 8.6 36.8 7.8 C 36.8 7.8 36.8 7.4 36.8 7.4 C 36.8 6.1 37.1 5.1 37.6 4.4 C 38.2 3.7 39 3.4 40.1 3.4 C 40.14 3.36 40.3 3.4 40.3 3.4 Z M 39.1 6.6 C 38.8 6.6 38.5 6.7 38.3 6.8 C 38 7 37.8 7.3 37.7 7.5 C 37.7 7.5 37.7 7.9 37.7 7.9 C 37.7 8.5 37.9 8.9 38.1 9.3 C 38.4 9.7 38.7 9.8 39.1 9.8 C 39.5 9.8 39.8 9.7 40.1 9.4 C 40.3 9.1 40.4 8.7 40.4 8.2 C 40.4 7.7 40.3 7.3 40.1 7 C 39.8 6.7 39.5 6.6 39.1 6.6 Z M 46.8 7.4 C 46.8 8.5 46.7 9.3 46.3 9.8 C 45.9 10.3 45.4 10.6 44.6 10.6 C 43.8 10.6 43.3 10.3 42.9 9.8 C 42.5 9.3 42.4 8.6 42.3 7.6 C 42.3 7.6 42.3 6.4 42.3 6.4 C 42.3 5.3 42.5 4.5 42.9 4 C 43.2 3.5 43.8 3.3 44.6 3.3 C 45.3 3.3 45.9 3.5 46.3 4 C 46.6 4.5 46.8 5.3 46.8 6.3 C 46.8 6.3 46.8 7.4 46.8 7.4 Z M 45.9 6.2 C 45.9 5.4 45.8 4.9 45.6 4.5 C 45.4 4.2 45.1 4 44.6 4 C 44.1 4 43.8 4.2 43.6 4.5 C 43.4 4.9 43.3 5.4 43.2 6.1 C 43.2 6.1 43.2 7.6 43.2 7.6 C 43.2 8.4 43.4 8.9 43.6 9.3 C 43.8 9.7 44.1 9.8 44.6 9.8 C 45 9.8 45.4 9.7 45.6 9.3 C 45.8 9 45.9 8.4 45.9 7.7 C 45.9 7.7 45.9 6.2 45.9 6.2 Z M 54.9 7.4 C 54.9 8.5 54.7 9.3 54.4 9.8 C 54 10.3 53.5 10.6 52.7 10.6 C 51.9 10.6 51.4 10.3 51 9.8 C 50.6 9.3 50.4 8.6 50.4 7.6 C 50.4 7.6 50.4 6.4 50.4 6.4 C 50.4 5.3 50.6 4.5 51 4 C 51.3 3.5 51.9 3.3 52.7 3.3 C 53.4 3.3 54 3.5 54.4 4 C 54.7 4.5 54.9 5.3 54.9 6.3 C 54.9 6.3 54.9 7.4 54.9 7.4 Z M 54 6.2 C 54 5.4 53.9 4.9 53.7 4.5 C 53.5 4.2 53.1 4 52.7 4 C 52.2 4 51.9 4.2 51.7 4.5 C 51.5 4.9 51.3 5.4 51.3 6.1 C 51.3 6.1 51.3 7.6 51.3 7.6 C 51.3 8.4 51.4 8.9 51.7 9.3 C 51.9 9.7 52.2 9.8 52.7 9.8 C 53.1 9.8 53.5 9.7 53.7 9.3 C 53.9 9 54 8.4 54 7.7 C 54 7.7 54 6.2 54 6.2 Z M 60.5 7.4 C 60.5 8.5 60.4 9.3 60 9.8 C 59.6 10.3 59.1 10.6 58.3 10.6 C 57.5 10.6 57 10.3 56.6 9.8 C 56.3 9.3 56.1 8.6 56 7.6 C 56 7.6 56 6.4 56 6.4 C 56 5.3 56.2 4.5 56.6 4 C 57 3.5 57.5 3.3 58.3 3.3 C 59.1 3.3 59.6 3.5 60 4 C 60.3 4.5 60.5 5.3 60.5 6.3 C 60.5 6.3 60.5 7.4 60.5 7.4 Z M 59.6 6.2 C 59.6 5.4 59.5 4.9 59.3 4.5 C 59.1 4.2 58.8 4 58.3 4 C 57.8 4 57.5 4.2 57.3 4.5 C 57.1 4.9 57 5.4 57 6.1 C 57 6.1 57 7.6 57 7.6 C 57 8.4 57.1 8.9 57.3 9.3 C 57.5 9.7 57.8 9.8 58.3 9.8 C 58.7 9.8 59.1 9.7 59.3 9.3 C 59.5 9 59.6 8.4 59.6 7.7 C 59.6 7.7 59.6 6.2 59.6 6.2 Z M 66 5.2 C 66 5.6 65.9 5.9 65.7 6.2 C 65.5 6.4 65.3 6.7 65 6.8 C 65.3 7 65.6 7.2 65.8 7.5 C 66.1 7.8 66.2 8.2 66.2 8.6 C 66.2 9.2 66 9.7 65.5 10 C 65.1 10.4 64.6 10.6 63.9 10.6 C 63.2 10.6 62.7 10.4 62.3 10 C 61.9 9.7 61.7 9.2 61.7 8.6 C 61.7 8.2 61.8 7.8 62 7.5 C 62.2 7.2 62.5 7 62.8 6.8 C 62.5 6.7 62.3 6.4 62.1 6.2 C 61.9 5.9 61.8 5.6 61.8 5.2 C 61.8 4.6 62 4.2 62.4 3.8 C 62.8 3.4 63.3 3.3 63.9 3.3 C 64.5 3.3 65 3.4 65.4 3.8 C 65.8 4.2 66 4.6 66 5.2 Z M 65.3 8.5 C 65.3 8.1 65.1 7.8 64.9 7.6 C 64.6 7.3 64.3 7.2 63.9 7.2 C 63.5 7.2 63.2 7.3 62.9 7.6 C 62.7 7.8 62.6 8.1 62.6 8.5 C 62.6 8.9 62.7 9.3 62.9 9.5 C 63.2 9.7 63.5 9.8 63.9 9.8 C 64.3 9.8 64.7 9.7 64.9 9.5 C 65.1 9.3 65.3 8.9 65.3 8.5 Z M 63.9 4 C 63.6 4 63.3 4.1 63 4.3 C 62.8 4.6 62.7 4.9 62.7 5.2 C 62.7 5.6 62.8 5.9 63 6.1 C 63.3 6.3 63.5 6.5 63.9 6.5 C 64.3 6.5 64.6 6.3 64.8 6.1 C 65 5.9 65.1 5.6 65.1 5.2 C 65.1 4.9 65 4.6 64.8 4.4 C 64.5 4.1 64.3 4 63.9 4 Z " stroke="none" fill="#fff"/>  </g></svg>