<?xml version="1.0" standalone="no"?><!DOCTYPE svg PUBLIC "-//W3C//DTD SVG 1.1//EN" "http://www.w3.org/Graphics/SVG/1.1/DTD/svg11.dtd"><svg xmlns="http://www.w3.org/2000/svg" version="1.1" width="194.4px" height="40.5px" viewBox="0 -1 194.4 40.5" style="top:-1px">  <desc>Executive Summary</desc>  <defs/>  <g id="Polygon809071">    <path d="M 11.8 17.8 L 5 17.8 L 5 22.3 L 13 22.3 L 13 25.1 L 1.5 25.1 L 1.5 8.1 L 12.9 8.1 L 12.9 10.9 L 5 10.9 L 5 15 L 11.8 15 L 11.8 17.8 Z M 18.4 16.3 L 20.6 12.5 L 24.2 12.5 L 20.6 18.7 L 24.3 25.1 L 20.7 25.1 L 18.4 21.2 L 16.2 25.1 L 12.5 25.1 L 16.3 18.7 L 12.7 12.5 L 16.3 12.5 L 18.4 16.3 Z M 30.4 25.4 C 28.6 25.4 27.1 24.8 25.9 23.7 C 24.7 22.5 24.2 21 24.2 19.1 C 24.2 19.1 24.2 18.8 24.2 18.8 C 24.2 17.5 24.4 16.4 24.9 15.4 C 25.4 14.4 26.1 13.6 27 13 C 27.9 12.5 28.9 12.2 30.1 12.2 C 31.8 12.2 33.2 12.8 34.2 13.9 C 35.2 15 35.7 16.5 35.7 18.5 C 35.66 18.53 35.7 19.9 35.7 19.9 C 35.7 19.9 27.59 19.91 27.6 19.9 C 27.7 20.7 28 21.4 28.6 21.9 C 29.1 22.4 29.8 22.7 30.7 22.7 C 32 22.7 33 22.2 33.7 21.2 C 33.7 21.2 35.4 23.1 35.4 23.1 C 34.9 23.8 34.2 24.4 33.3 24.8 C 32.5 25.2 31.5 25.4 30.4 25.4 Z M 30.1 15 C 29.4 15 28.8 15.2 28.4 15.6 C 28 16.1 27.7 16.8 27.6 17.6 C 27.62 17.6 32.3 17.6 32.3 17.6 C 32.3 17.6 32.33 17.33 32.3 17.3 C 32.3 16.6 32.1 16 31.7 15.6 C 31.3 15.2 30.8 15 30.1 15 Z M 41.7 22.7 C 42.3 22.7 42.8 22.5 43.2 22.1 C 43.6 21.8 43.8 21.3 43.8 20.8 C 43.8 20.8 47 20.8 47 20.8 C 47 21.6 46.7 22.4 46.3 23.1 C 45.8 23.8 45.2 24.4 44.4 24.8 C 43.6 25.2 42.7 25.4 41.7 25.4 C 39.9 25.4 38.5 24.8 37.4 23.7 C 36.4 22.5 35.9 20.9 35.9 18.9 C 35.9 18.9 35.9 18.7 35.9 18.7 C 35.9 16.7 36.4 15.1 37.4 14 C 38.5 12.8 39.9 12.2 41.7 12.2 C 43.3 12.2 44.6 12.7 45.5 13.6 C 46.5 14.5 47 15.7 47 17.2 C 47 17.2 43.8 17.2 43.8 17.2 C 43.8 16.5 43.6 16 43.2 15.6 C 42.8 15.2 42.3 15 41.6 15 C 40.8 15 40.2 15.3 39.8 15.8 C 39.4 16.4 39.2 17.3 39.2 18.6 C 39.2 18.6 39.2 19 39.2 19 C 39.2 20.3 39.4 21.2 39.8 21.8 C 40.2 22.4 40.8 22.7 41.7 22.7 Z M 55.3 23.9 C 54.5 24.9 53.3 25.4 51.8 25.4 C 50.5 25.4 49.4 25 48.7 24.2 C 48 23.4 47.6 22.3 47.6 20.8 C 47.62 20.78 47.6 12.5 47.6 12.5 L 51 12.5 C 51 12.5 51 20.67 51 20.7 C 51 22 51.6 22.7 52.8 22.7 C 54 22.7 54.7 22.3 55.2 21.5 C 55.18 21.46 55.2 12.5 55.2 12.5 L 58.6 12.5 L 58.6 25.1 L 55.4 25.1 C 55.4 25.1 55.29 23.86 55.3 23.9 Z M 64 9.4 L 64 12.5 L 66.2 12.5 L 66.2 15 L 64 15 C 64 15 63.98 21.28 64 21.3 C 64 21.8 64.1 22.1 64.3 22.3 C 64.4 22.5 64.8 22.6 65.3 22.6 C 65.7 22.6 66 22.6 66.3 22.5 C 66.3 22.5 66.3 25.1 66.3 25.1 C 65.6 25.3 64.9 25.4 64.2 25.4 C 61.9 25.4 60.6 24.2 60.6 21.8 C 60.6 21.79 60.6 15 60.6 15 L 58.7 15 L 58.7 12.5 L 60.6 12.5 L 60.6 9.4 L 64 9.4 Z M 70.4 25.1 L 67 25.1 L 67 12.5 L 70.4 12.5 L 70.4 25.1 Z M 66.8 9.2 C 66.8 8.7 67 8.3 67.3 7.9 C 67.7 7.6 68.1 7.4 68.7 7.4 C 69.3 7.4 69.8 7.6 70.1 7.9 C 70.4 8.3 70.6 8.7 70.6 9.2 C 70.6 9.7 70.4 10.1 70.1 10.5 C 69.7 10.8 69.3 10.9 68.7 10.9 C 68.1 10.9 67.7 10.8 67.3 10.5 C 67 10.1 66.8 9.7 66.8 9.2 Z M 76.7 21 L 79.1 12.5 L 82.6 12.5 L 78.4 25.1 L 75.1 25.1 L 70.9 12.5 L 74.4 12.5 L 76.7 21 Z M 88.8 25.4 C 86.9 25.4 85.4 24.8 84.2 23.7 C 83.1 22.5 82.5 21 82.5 19.1 C 82.5 19.1 82.5 18.8 82.5 18.8 C 82.5 17.5 82.7 16.4 83.2 15.4 C 83.7 14.4 84.4 13.6 85.3 13 C 86.2 12.5 87.2 12.2 88.4 12.2 C 90.1 12.2 91.5 12.8 92.5 13.9 C 93.5 15 94 16.5 94 18.5 C 93.98 18.53 94 19.9 94 19.9 C 94 19.9 85.91 19.91 85.9 19.9 C 86 20.7 86.3 21.4 86.9 21.9 C 87.4 22.4 88.1 22.7 89 22.7 C 90.3 22.7 91.3 22.2 92 21.2 C 92 21.2 93.7 23.1 93.7 23.1 C 93.2 23.8 92.5 24.4 91.7 24.8 C 90.8 25.2 89.8 25.4 88.8 25.4 Z M 88.4 15 C 87.7 15 87.2 15.2 86.7 15.6 C 86.3 16.1 86.1 16.8 85.9 17.6 C 85.94 17.6 90.7 17.6 90.7 17.6 C 90.7 17.6 90.65 17.33 90.7 17.3 C 90.6 16.6 90.4 16 90 15.6 C 89.7 15.2 89.1 15 88.4 15 Z M 108.6 20.7 C 108.6 20 108.3 19.5 107.8 19.1 C 107.4 18.8 106.5 18.4 105.3 18 C 104.1 17.6 103.1 17.2 102.4 16.9 C 100.5 15.8 99.5 14.4 99.5 12.6 C 99.5 11.7 99.8 10.9 100.3 10.2 C 100.8 9.4 101.6 8.9 102.5 8.5 C 103.5 8.1 104.6 7.9 105.8 7.9 C 107 7.9 108.1 8.1 109.1 8.5 C 110 9 110.8 9.6 111.3 10.4 C 111.8 11.2 112.1 12.1 112.1 13.1 C 112.1 13.1 108.6 13.1 108.6 13.1 C 108.6 12.3 108.3 11.7 107.8 11.3 C 107.3 10.9 106.6 10.7 105.8 10.7 C 104.9 10.7 104.2 10.8 103.7 11.2 C 103.3 11.6 103 12 103 12.6 C 103 13.2 103.3 13.7 103.9 14 C 104.4 14.4 105.2 14.8 106.3 15.1 C 108.3 15.7 109.8 16.4 110.7 17.3 C 111.6 18.2 112.1 19.3 112.1 20.6 C 112.1 22.1 111.5 23.3 110.4 24.1 C 109.3 25 107.8 25.4 105.9 25.4 C 104.6 25.4 103.4 25.1 102.3 24.7 C 101.2 24.2 100.4 23.5 99.8 22.7 C 99.3 21.9 99 20.9 99 19.8 C 99 19.8 102.5 19.8 102.5 19.8 C 102.5 21.7 103.6 22.6 105.9 22.6 C 106.7 22.6 107.4 22.4 107.8 22.1 C 108.3 21.8 108.6 21.3 108.6 20.7 Z M 120.6 23.9 C 119.8 24.9 118.6 25.4 117.2 25.4 C 115.8 25.4 114.8 25 114 24.2 C 113.3 23.4 113 22.3 113 20.8 C 112.95 20.78 113 12.5 113 12.5 L 116.3 12.5 C 116.3 12.5 116.34 20.67 116.3 20.7 C 116.3 22 116.9 22.7 118.1 22.7 C 119.3 22.7 120.1 22.3 120.5 21.5 C 120.51 21.46 120.5 12.5 120.5 12.5 L 123.9 12.5 L 123.9 25.1 L 120.7 25.1 C 120.7 25.1 120.63 23.86 120.6 23.9 Z M 128.4 12.5 C 128.4 12.5 128.55 13.89 128.5 13.9 C 129.4 12.8 130.7 12.2 132.2 12.2 C 133.8 12.2 134.9 12.9 135.6 14.2 C 136.4 12.9 137.7 12.2 139.4 12.2 C 140.7 12.2 141.8 12.6 142.4 13.4 C 143.1 14.2 143.4 15.4 143.4 17.1 C 143.44 17.05 143.4 25.1 143.4 25.1 L 140 25.1 C 140 25.1 140.04 17.06 140 17.1 C 140 16.3 139.9 15.8 139.6 15.5 C 139.3 15.2 138.8 15 138.1 15 C 137.1 15 136.4 15.5 136 16.4 C 136.02 16.44 136 25.1 136 25.1 L 132.6 25.1 C 132.6 25.1 132.65 17.07 132.6 17.1 C 132.6 16.3 132.5 15.8 132.2 15.5 C 131.9 15.2 131.4 15 130.7 15 C 129.8 15 129.1 15.4 128.7 16.2 C 128.65 16.18 128.7 25.1 128.7 25.1 L 125.3 25.1 L 125.3 12.5 L 128.4 12.5 Z M 148 12.5 C 148 12.5 148.12 13.89 148.1 13.9 C 149 12.8 150.2 12.2 151.8 12.2 C 153.4 12.2 154.5 12.9 155.1 14.2 C 156 12.9 157.3 12.2 158.9 12.2 C 160.3 12.2 161.3 12.6 162 13.4 C 162.7 14.2 163 15.4 163 17.1 C 163.02 17.05 163 25.1 163 25.1 L 159.6 25.1 C 159.6 25.1 159.62 17.06 159.6 17.1 C 159.6 16.3 159.5 15.8 159.2 15.5 C 158.9 15.2 158.4 15 157.7 15 C 156.7 15 156 15.5 155.6 16.4 C 155.6 16.44 155.6 25.1 155.6 25.1 L 152.2 25.1 C 152.2 25.1 152.22 17.07 152.2 17.1 C 152.2 16.3 152.1 15.8 151.8 15.5 C 151.5 15.2 151 15 150.3 15 C 149.4 15 148.7 15.4 148.2 16.2 C 148.23 16.18 148.2 25.1 148.2 25.1 L 144.8 25.1 L 144.8 12.5 L 148 12.5 Z M 171.8 25.1 C 171.6 24.8 171.5 24.5 171.4 24 C 170.6 24.9 169.5 25.4 168.2 25.4 C 167 25.4 166 25 165.1 24.3 C 164.3 23.6 163.9 22.7 163.9 21.6 C 163.9 20.2 164.4 19.2 165.4 18.5 C 166.4 17.8 167.8 17.4 169.7 17.4 C 169.73 17.4 171.3 17.4 171.3 17.4 C 171.3 17.4 171.29 16.68 171.3 16.7 C 171.3 16.1 171.1 15.6 170.8 15.3 C 170.5 14.9 170.1 14.7 169.4 14.7 C 168.8 14.7 168.4 14.9 168.1 15.2 C 167.7 15.4 167.6 15.8 167.6 16.3 C 167.6 16.3 164.2 16.3 164.2 16.3 C 164.2 15.5 164.4 14.9 164.9 14.2 C 165.3 13.6 166 13.1 166.8 12.8 C 167.6 12.4 168.6 12.2 169.6 12.2 C 171.1 12.2 172.4 12.6 173.3 13.4 C 174.2 14.2 174.7 15.3 174.7 16.7 C 174.7 16.7 174.7 22.2 174.7 22.2 C 174.7 23.4 174.9 24.3 175.2 24.9 C 175.19 24.95 175.2 25.1 175.2 25.1 C 175.2 25.1 171.77 25.15 171.8 25.1 Z M 169 22.8 C 169.5 22.8 169.9 22.7 170.3 22.5 C 170.8 22.2 171.1 21.9 171.3 21.6 C 171.29 21.56 171.3 19.4 171.3 19.4 C 171.3 19.4 170.02 19.38 170 19.4 C 168.3 19.4 167.4 20 167.3 21.1 C 167.3 21.1 167.3 21.3 167.3 21.3 C 167.3 21.8 167.4 22.1 167.7 22.4 C 168 22.7 168.4 22.8 169 22.8 Z M 183.2 15.6 C 182.7 15.6 182.3 15.6 182 15.6 C 180.7 15.6 179.9 16 179.5 16.9 C 179.47 16.85 179.5 25.1 179.5 25.1 L 176.1 25.1 L 176.1 12.5 L 179.3 12.5 C 179.3 12.5 179.38 13.98 179.4 14 C 180.1 12.8 181 12.2 182.2 12.2 C 182.6 12.2 182.9 12.3 183.3 12.4 C 183.3 12.4 183.2 15.6 183.2 15.6 Z M 188.4 20.4 L 190.7 12.5 L 194.4 12.5 L 189.3 27.1 C 189.3 27.1 188.97 27.79 189 27.8 C 188.2 29.4 187 30.3 185.2 30.3 C 184.7 30.3 184.2 30.2 183.7 30 C 183.72 30.05 183.7 27.5 183.7 27.5 C 183.7 27.5 184.24 27.49 184.2 27.5 C 184.9 27.5 185.4 27.4 185.7 27.2 C 186 27 186.2 26.7 186.4 26.2 C 186.42 26.23 186.8 25.2 186.8 25.2 L 182.4 12.5 L 186 12.5 L 188.4 20.4 Z " stroke="none" fill="#253885"/>  </g></svg>